<?xml version="1.0" encoding="utf-8"?>
<!-- Generator: Adobe Illustrator 19.2.1, SVG Export Plug-In . SVG Version: 6.00 Build 0)  -->
<svg version="1.1" id="Capa_1" xmlns="http://www.w3.org/2000/svg" xmlns:xlink="http://www.w3.org/1999/xlink" x="0px" y="0px"
	 viewBox="0 0 792 375" style="enable-background:new 0 0 792 375;" xml:space="preserve">
<style type="text/css">
	.st0{fill:#FAFAFA;}
</style>
<g>
	<path class="st0" d="M223.8,61.2c0,0,89.5,154.9-50.8,208.6v-21.7C173,248.1,271.8,216.9,223.8,61.2z"/>
	<path class="st0" d="M30.7,269.8L64.8,242c0,0,214.9,30.7,141.6-204.5C206.3,37.5,334.1,265.4,30.7,269.8z"/>
	<g>
		<path class="st0" d="M178.7,91.6c-8.6-1.1-17.4-0.4-25.8,1.7c-17.7,4.4-31.3,16.4-40.3,32c-8.9,15.4-11.8,34.8-11.2,52.4
			c0.6,16.1,6.5,38,22.9,45.2c0.5,0.2,3,0,2.7-0.9c-2.2-6-6.1-11-8-17.2c-2.1-7-3.4-14.2-4.2-21.5c-1.7-16,0.7-32.7,6-47.8
			c5-14.2,14.4-26.9,28-33.8c15.4-7.7,30.5-1.4,46.3,0.3c0.9,0.1,4.9-0.7,3.8-2.3C195,93.8,185.1,92.5,178.7,91.6z"/>
		<path class="st0" d="M89.8,208.4c-8.3,1.7-15.7,7-23.1,10.9c-7.9,4-15.8,8-23.9,11.7c-2,0.9,0.7,1.4,1.6,1.1
			c10.3-3.2,20.7-6,30.7-10c5-2,18.5-5.9,19.5-12.1C95,207.6,91,208.2,89.8,208.4z"/>
		<path class="st0" d="M83.4,173.3c-17.1,0.6-33.9,3-51,2.6c-2.9-0.1-9.9,3.9-3.8,4.4c18,1.6,36.3,3.9,54.2,0.5
			C90.3,179.4,92.8,173,83.4,173.3z"/>
		<path class="st0" d="M90.1,144.1c-8.5-1.6-16.9-2.9-25.4-4.3c-7.9-1.2-15.8-4.1-23.8-3.6c-0.9,0.1-4,0.9-3.2,2.3
			c3,5,15.5,5,20.8,5.9c9,1.4,18.1,2,27,3.1C87.3,147.8,94.2,144.9,90.1,144.1z"/>
		<path class="st0" d="M94.4,125.6c-3.3-0.5-6.4-1.7-9.4-3.3c-2.8-1.4-4.9-2.7-8.1-1.6c-1.2,0.4-2.5,1.8-0.3,3.1
			c1.5,0.9,3.2,1.5,4.9,2.1c3.4,1.3,6.9,1.9,10.6,1.9C92.9,127.7,96.9,126,94.4,125.6z"/>
		<path class="st0" d="M86.2,94.4c-8.5-4.1-17.6-9.7-27.2-7.8c-2.8,0.5-7.5,3.9-0.5,6.3c5,1.7,10,3.7,14.9,5.7
			c10.5,4.3,20.7,10,31.6,13c0.8,0.2,4.3-0.4,3.5-1.7C104.1,102.5,93.5,97.9,86.2,94.4z"/>
		<path class="st0" d="M84.6,162.6l-7.3,0.2c-2.5,0.1-5.2,0.1-7.4,1.5c-0.2,0.1-0.6,0.5-0.5,0.8c0.5,1.5,3.8,1.1,5,1.1l7.2-0.1
			c1.6,0,3.6-0.3,4.7-1.6C87.4,163.3,85.6,162.6,84.6,162.6z"/>
		<path class="st0" d="M85.9,197.4c-1.8,0.7-3.6,1.3-5.5,1.6c-2,0.4-4,0-6,0.3c-1,0.1-6.2,1.7-3.6,3.3c2.6,1.5,7,0.5,9.8,0
			c3-0.6,5.9-1.7,8.6-3c0.6-0.3,2-1.2,1.2-2.1C89.4,196.5,87.1,197,85.9,197.4z"/>
		<path class="st0" d="M101.9,80.8c-0.8-0.4-3.2,0-3.2,1.1c0,3.6,3.3,6,5.7,8.3c3.3,3.1,6.8,6,9.7,9.5c1,1.2,6-0.3,4.9-1.7
			c-2.4-3.1-5.2-5.8-8-8.5C108,86.6,105.5,83,101.9,80.8z"/>
		<path class="st0" d="M103.6,45.3c-1.9-0.4-4.7,0.2-5.7,2c-0.5,0.8-1,1.7-1.5,2.5c-0.2,0.6-0.1,1.1,0.3,1.6
			c9.2,13.2,18,28.7,30.5,39.1c1.4,1.2,9.2,0.2,8.1-2.3c-3.4-7.9-8.3-15.1-12.9-22.4c-2.6-4.1-5.1-8.1-7.8-12.1
			C111.1,48.7,109.7,46.5,103.6,45.3z"/>
		<path class="st0" d="M137.7,61.9c-1,3.5,1.3,7.1,2.8,10.1c1.8,3.7,4.4,7,7.5,9.6c0.6,0.5,3.1,0,2.6-0.9c-1.9-3.2-3.7-6.4-5.3-9.8
			c-1.5-3.2-1.9-7.2-4.3-9.8C140.3,60.6,138,61,137.7,61.9z"/>
		<path class="st0" d="M157.1,24.1c-1.2,9,1.2,18.7,2.1,27.7c1,9.2,0.1,21,3.9,29.5c0.8,1.7,4.7,0.5,5.3-0.9
			c3.8-8.4,2.3-19.2,1.6-28.2c-0.8-9.5-0.6-20.5-3.3-29.7C165.8,19.7,157.4,21.4,157.1,24.1z"/>
		<path class="st0" d="M185.8,60.9c-4.8,4.3-4.7,13-6.3,18.9c-0.6,2.2,6.1,1.4,6.6-0.6c0.9-3.3,1.5-6.7,2.3-10.1
			c0.6-2.6,2.2-6,1-8.6C188.8,59.3,186.5,60.3,185.8,60.9z"/>
	</g>
	<g>
		<path class="st0" d="M183.1,113.6c0,5.7-4.5,10.4-9.9,10.4s-9.9-4.7-9.9-10.4c0-5.9,4.5-10.4,9.9-10.4S183.1,107.7,183.1,113.6
			L183.1,113.6z"/>
		<path class="st0" d="M151.6,163.7c0,0,0.2-36.5,18-38.1c18-1.6,16.7,17.1,32,20.4c6.7,1.4,3,7.3-3,4.7c0,0-6.7-1-11.6-6.1
			c-4.9-5.3-4.3-1.8-2.4,4.9c1.9,6.9,8.4,37.5,3.7,52.5c-4.5,14.7-5.2,9.4-5.2-4.5s-3.7-30.8-6.4-19.3c-2.8,11.6-1.3,32.2-5.6,31.6
			c-4.5-0.6-6.2-44.8-6.6-61.1c0.2-5.5-5.2-3.1-9.6,19.3L151.6,163.7z"/>
		<path class="st0" d="M158.5,126.4c0,4.9-3.7,8.8-8.4,8.8c-4.5,0-8.2-3.9-8.2-8.8c0-4.9,3.7-8.8,8.2-8.8
			C154.7,117.6,158.5,121.5,158.5,126.4L158.5,126.4z"/>
		<path class="st0" d="M130.4,163.9c0,0-2.4,7.1,2.2,2c4.5-5.3,12.9-19.3,9.2-6.3c-3.9,13-13.3,29.7-8.4,27.9
			c4.9-1.8,6.6-1.2,6.6-1.2s-1.1,24.6,1.9,23.6c2.8-1,6.7-24.4,6.7-24.4s7.9-1.6,8.2,1.8c0.4,3.3-1.9,22.4,1.7,21
			c3.6-1.2,5.4-24.2,5.4-24.2s13.5,1.8,6.9-4.5c-6.7-6.1-17.8-28.3-13.9-26.5c3.9,1.8,12.7,7.7,12.7,7.7c-0.8-4.7-0.8-4.7-0.8-4.7
			S156.8,137,150,137C143.7,137,130.4,163.9,130.4,163.9L130.4,163.9z"/>
		<path class="st0" d="M200.2,115c0,3.3-2.6,6.1-6,6.1c-3.2,0-5.8-2.7-5.8-6.1c0-3.3,2.6-6.1,5.8-6.1
			C197.5,108.9,200.2,111.7,200.2,115L200.2,115z"/>
		<path class="st0" d="M201.3,122.1c-3.2,2.2-15.6,1.4-15.6,1.4c-2.8-0.2-6.2-2-6.4,1.6c0,3.7,9,2.9,9,2.9s1.3,5.7-1.1,10
			c-2.4,4.1-3.7,7.3-3.4,11.8c0.2,4.5,4.7,4.9,4.1-2c-0.6-6.9,5.1-6.3,5.1-6.3c-1.5,2.8-1.5,3.7,0.2,8.8s5.4,4.3,4.5,1.4
			c-0.9-2.8-3.4-6.5-0.6-9.6c2.8-3.3,3.4-3.7,3-11.2c-0.2-2.9,0.7-3.7,2.1-4.5c0,0,5.2-1.6,5.8-7.1c0.4-5.7-3-2.9-3.4-1.6
			C204.3,120.9,201.3,122.1,201.3,122.1L201.3,122.1z"/>
	</g>
	<g>
		<path class="st0" d="M285.9,115.7c-6.7-6-8.4-13.9-8.4-20.5c0-4.6,1.6-12.8,7.8-18.9c4.2-4.2,10.5-7.4,21.2-7.4
			c2.8,0,6.7,0.2,10.1,0.8c2.6,0.5,4.9,0.9,7.1,1c0.8,0.1,0.9,0.3,0.9,0.8c0,0.6-0.2,1.4-0.3,3.9c-0.1,2.3-0.1,6.1-0.2,7.1
			s-0.2,1.5-0.6,1.5c-0.5,0-0.6-0.5-0.6-1.5c0-2.7-1.1-5.5-2.9-7.1c-2.4-2.1-7.8-4-13.9-4c-9.2,0-13.5,2.7-16,5.1
			c-5.1,4.9-6.2,11-6.2,18.1c0,13.2,10.2,25.4,25,25.4c5.2,0,9.3-0.6,12.1-3.5c1.5-1.5,2.4-4.6,2.6-5.8c0.1-0.8,0.3-1,0.7-1
			c0.3,0,0.5,0.5,0.5,1s-0.8,6.5-1.5,8.9c-0.4,1.3-0.6,1.5-1.8,2c-2.8,1.1-8,1.6-12.5,1.6C298.4,123.2,291.4,120.7,285.9,115.7z"/>
		<path class="st0" d="M337.6,94.7c0-9.2,0-10.8-0.1-12.7c-0.1-2-0.5-3-2.5-3.3c-0.5-0.1-1.5-0.1-2.1-0.1c-0.2,0-0.5-0.3-0.5-0.5
			c0-0.3,0.3-0.5,1-0.5c2.8,0,6.9,0.1,7.2,0.1c0.6,0,5.8-0.1,7.6-0.1c3.9,0,8.2,0.3,11.4,2.6c1.5,1.1,4.2,4,4.2,8
			c0,4.4-1.8,8.6-7.5,13.5c5,6.2,9.2,11.6,12.8,15.3c3.3,3.3,5.3,3.9,6.8,4.1c1.2,0.2,1.8,0.2,2.2,0.2c0.3,0,0.6,0.3,0.6,0.5
			c0,0.3-0.3,0.5-1.5,0.5h-3.8c-3.5,0-5-0.3-6.5-1.2c-2.6-1.4-4.9-4.2-8.3-8.7c-2.6-3.2-5.3-7-6.6-8.6c-0.3-0.3-0.4-0.3-0.8-0.3
			l-7.8-0.1c-0.3,0-0.4,0.1-0.4,0.5v1.4c0,5.7,0,10.3,0.3,12.7c0.2,1.7,0.6,2.8,2.4,3.1c0.8,0.1,2.2,0.3,2.7,0.3
			c0.4,0,0.5,0.3,0.5,0.5c0,0.3-0.3,0.5-1,0.5c-3.3,0-7.2-0.2-7.5-0.2c-0.1,0-4.2,0.2-6,0.2c-0.6,0-1-0.1-1-0.5
			c0-0.2,0.1-0.5,0.5-0.5c0.6,0,1.3-0.1,1.9-0.3c1.2-0.3,1.3-1.4,1.6-3.1c0.3-2.4,0.3-7.1,0.3-12.8V94.7H337.6z M342.9,99.7
			c0,0.3,0.1,0.6,0.4,0.8c0.9,0.5,4,0.9,6.7,0.9c1.5,0,3.1-0.1,4.6-1c2.1-1.4,3.7-4.5,3.7-9c0-7.4-4-11.6-10.5-11.6
			c-1.8,0-3.7,0.2-4.4,0.3c-0.3,0.1-0.5,0.3-0.5,0.7L342.9,99.7L342.9,99.7z"/>
		<path class="st0" d="M382.1,94.7c0-9.2,0-10.8-0.1-12.7c-0.1-2-0.5-3-2.5-3.3c-0.5-0.1-1.5-0.1-2.1-0.1c-0.2,0-0.5-0.3-0.5-0.5
			c0-0.3,0.3-0.5,1-0.5c2.8,0,6.7,0.1,7.1,0.1s13.2,0.1,14.6,0c1.2-0.1,2.3-0.3,2.8-0.3c0.3-0.1,0.6-0.3,0.8-0.3
			c0.2,0,0.3,0.3,0.3,0.6c0,0.4-0.3,1.1-0.5,2.8c-0.1,0.6-0.2,3.2-0.3,3.9c-0.1,0.3-0.3,0.6-0.6,0.6c-0.3,0-0.5-0.3-0.5-0.8
			c0-0.4-0.1-1.4-0.3-2.1c-0.4-1-1-1.4-4.4-1.8c-1-0.1-8.1-0.2-8.8-0.2c-0.3,0-0.3,0.2-0.3,0.6v16c0,0.4,0,0.6,0.3,0.6
			c0.8,0,8.8,0,10.2-0.1c1.5-0.1,2.4-0.2,3-0.8c0.4-0.4,0.7-0.8,0.9-0.8c0.2,0,0.3,0.1,0.3,0.5c0,0.3-0.3,1.3-0.5,3.3
			c-0.1,1.2-0.3,3.4-0.3,3.8c0,0.5-0.1,1.1-0.6,1.1c-0.3,0-0.4-0.2-0.4-0.6c0-0.6,0-1.2-0.3-1.9c-0.2-0.8-0.8-1.5-3.1-1.8
			c-1.7-0.2-8.2-0.3-9.2-0.3c-0.3,0-0.4,0.2-0.4,0.4v4.9c0,2-0.1,8.9,0,10.1c0.1,4,1.2,4.7,7.3,4.7c1.6,0,4.5,0,6.1-0.6
			c1.6-0.7,2.4-1.7,2.8-4.1c0.1-0.7,0.3-0.9,0.6-0.9c0.3,0,0.4,0.5,0.4,0.9s-0.5,4.4-0.8,5.7c-0.4,1.5-1,1.5-3.4,1.5
			c-4.6,0-8.1-0.1-10.6-0.2c-2.6-0.1-4.2-0.1-5.1-0.1c-0.1,0-1.3,0-2.6,0.1c-1.2,0.1-2.6,0.1-3.5,0.1c-0.6,0-1-0.1-1-0.5
			c0-0.2,0.1-0.5,0.5-0.5c0.6,0,1.3-0.2,1.9-0.3c1.2-0.2,1.3-1.4,1.6-3.1c0.3-2.4,0.3-7.1,0.3-12.8L382.1,94.7L382.1,94.7z
			 M401.1,68.3c0.3,0.6,0,0.8-0.3,0.8c-0.2,0-0.9-0.1-2.1,0c-3.4,0.3-8.3,1.9-10.5,2.9c-0.5,0.2-0.9,0.3-1,0.3s-0.3-0.1-0.3-0.4
			c0-0.2,0.1-0.3,0.5-0.6c2.5-1.7,8.9-5.6,9.4-5.9c1.2-0.7,1.6-0.9,1.9-0.9c0.2,0,0.3,0.1,0.7,0.6C399.8,66,400.3,67,401.1,68.3z"/>
		<path class="st0" d="M418.3,94.7c0-9.2,0-10.8-0.1-12.7c-0.1-2-0.5-3-2.5-3.3c-0.5-0.1-1.5-0.1-2.1-0.1c-0.2,0-0.5-0.3-0.5-0.5
			c0-0.3,0.3-0.5,1-0.5c2.8,0,6.7,0.1,7.1,0.1c0.7,0,4.6-0.1,8.2-0.1c6.1,0,17.3-0.6,24.5,6.7c3.1,3.1,6,8,6,15
			c0,7.4-3.2,13.1-6.6,16.6c-2.6,2.7-8.1,6.8-18.5,6.8c-2.6,0-5.9-0.2-8.5-0.3c-2.6-0.2-4.7-0.3-5-0.3c-0.1,0-1.2,0.1-2.5,0.1
			c-1.2,0.1-2.7,0.1-3.7,0.1c-0.6,0-1-0.1-1-0.5c0-0.2,0.1-0.5,0.5-0.5c0.6,0,1.3-0.1,1.9-0.3c1.2-0.3,1.3-1.4,1.6-3.1
			c0.3-2.4,0.3-7.1,0.3-12.8L418.3,94.7L418.3,94.7z M423.8,101.1c0,6.2,0,11.7,0.1,12.8c0.1,1.5,0.2,3.6,0.7,4.2
			c0.8,1.1,2.9,2.4,10.1,2.4c5.6,0,10.6-1.9,14.3-5.3c3.2-3,4.8-8.6,4.8-14c0-7.5-3.3-12.3-5.8-14.8c-5.8-5.8-12.5-6.6-19.8-6.6
			c-1.2,0-3.1,0.2-3.7,0.4c-0.6,0.2-0.8,0.5-0.8,1.2L423.8,101.1L423.8,101.1z"/>
		<path class="st0" d="M477.2,105.1c0,5.7,0,10.3,0.3,12.8c0.2,1.7,0.4,2.8,2.2,3.1c0.9,0.1,2.2,0.3,2.8,0.3c0.3,0,0.5,0.3,0.5,0.5
			c0,0.3-0.3,0.5-1,0.5c-3.4,0-7.4-0.2-7.6-0.2c-0.3,0-4.2,0.2-6,0.2c-0.6,0-1-0.1-1-0.5c0-0.2,0.1-0.5,0.5-0.5
			c0.6,0,1.3-0.1,1.9-0.3c1.2-0.3,1.4-1.4,1.6-3.1c0.3-2.4,0.3-7.1,0.3-12.8V94.7c0-9.2,0-10.8-0.1-12.7c-0.1-2-0.6-2.9-1.9-3.2
			c-0.7-0.1-1.5-0.2-1.9-0.2c-0.3,0-0.5-0.3-0.5-0.5c0-0.3,0.3-0.5,1-0.5c2,0,5.8,0.1,6.2,0.1c0.3,0,4.2-0.1,6.1-0.1
			c0.7,0,1,0.1,1,0.5c0,0.2-0.3,0.5-0.5,0.5c-0.4,0-0.8,0-1.5,0.1c-1.7,0.3-2,1.2-2.1,3.3c-0.1,1.9-0.1,3.5-0.1,12.7v10.4H477.2z"/>
		<path class="st0" d="M509.9,105.1c0,5.7,0,10.3,0.3,12.8c0.2,1.7,0.5,2.8,2.4,3.1c0.8,0.1,2.2,0.3,2.8,0.3c0.4,0,0.5,0.3,0.5,0.5
			c0,0.3-0.3,0.5-1,0.5c-3.3,0-7.2-0.2-7.6-0.2c-0.3,0-4.5,0.2-6.3,0.2c-0.7,0-1-0.1-1-0.5c0-0.2,0.1-0.4,0.5-0.4
			c0.6,0,1.2-0.1,1.8-0.3c1.2-0.3,1.6-1.5,1.8-3.2c0.3-2.4,0.3-7.1,0.3-12.8V80.3l-8.8,0.1c-3.8,0.1-5.3,0.5-6.2,1.9
			c-0.7,1-0.8,1.5-1,1.9c-0.1,0.5-0.3,0.6-0.6,0.6c-0.1,0-0.4-0.1-0.4-0.5c0-0.6,1.2-5.9,1.3-6.4c0.1-0.3,0.4-1.1,0.6-1.1
			c0.4,0,1,0.5,2.7,0.7s4.1,0.3,4.8,0.3h23c2,0,3.4-0.1,4.4-0.3c0.9-0.1,1.5-0.3,1.7-0.3c0.3,0,0.3,0.3,0.3,0.7c0,1.8-0.2,6-0.2,6.7
			c0,0.5-0.3,0.8-0.6,0.8s-0.4-0.2-0.5-1l-0.1-0.6c-0.2-1.8-1.5-3.1-7.4-3.3l-7.6-0.1v24.7H509.9z"/>
		<path class="st0" d="M552.5,76.8c13.7,0,24.1,8.4,24.1,22.1c0,13.2-9.8,24.1-24.5,24.1c-16.7,0-23.9-12.6-23.9-23.2
			C528.3,90.3,535.6,76.8,552.5,76.8z M553.9,120.6c5.5,0,16.5-2.9,16.5-20c0-14.2-8.6-21.6-18.2-21.6c-10.2,0-17.6,6.4-17.6,19.2
			C534.6,112,542.9,120.6,553.9,120.6z"/>
	</g>
	<g>
		<path class="st0" d="M283.1,207.5c-1.5-0.6-1.7-1.1-1.7-3.1c0-5.1,0.4-10.6,0.5-12.1c0.1-1.4,0.4-2.4,1.1-2.4
			c0.8,0,0.9,0.8,0.9,1.6c0,1.2,0.4,3.1,0.8,4.7c2,6.8,7.5,9.3,13.2,9.3c8.3,0,12.3-5.6,12.3-10.5c0-4.5-1.4-8.7-9-14.7L297,177
			c-10.1-7.9-13.6-14.4-13.6-21.8c0-10.1,8.5-17.4,21.3-17.4c6,0,9.8,0.9,12.2,1.6c0.8,0.2,1.3,0.5,1.3,1.1c0,1.2-0.4,3.9-0.4,11
			c0,2-0.3,2.8-1,2.8c-0.6,0-0.9-0.6-0.9-1.7c0-0.8-0.5-3.7-2.4-6.1c-1.4-1.7-4-4.5-10-4.5c-6.8,0-10.9,4-10.9,9.5
			c0,4.2,2.1,7.5,9.8,13.2l2.6,1.9c11.1,8.4,15.1,14.7,15.1,23.5c0,5.3-2,11.7-8.6,16c-4.6,2.9-9.8,3.8-14.6,3.8
			C291.2,209.9,287.1,209.3,283.1,207.5z"/>
		<path class="st0" d="M328.3,179c0-13.3,9.4-30.6,34-30.6c20.4,0,33.1,11.3,33.1,29.3s-13.1,32-34,32
			C337.9,209.7,328.3,192.9,328.3,179z M383.3,180.5c0-17.3-10.4-28-23.5-28c-9,0-19.6,4.8-19.6,24.1c0,16.1,9.2,28.8,24.5,28.8
			C370.4,205.4,383.3,202.8,383.3,180.5z"/>
		<path class="st0" d="M418.5,185.9c0,10,0,15,1.7,16.5c1.4,1.2,4.5,1.7,10.8,1.7c4.3,0,7.5-0.1,9.5-2.2c1-1,1.8-3.2,2-4.7
			c0.1-0.7,0.3-1.2,0.9-1.2s0.7,0.8,0.7,1.7s-0.6,6.7-1.2,9c-0.6,1.7-0.9,2.1-5.2,2.1c-5.8,0-10.5-0.1-14.5-0.3
			c-4-0.1-7.5-0.2-10.8-0.2c-0.9,0-2.7,0.1-4.6,0.1c-1.9,0.1-4,0.2-5.6,0.2c-1,0-1.6-0.3-1.6-0.8c0-0.4,0.3-0.8,1.3-0.8
			c1.2,0,2.1-0.1,2.9-0.3c1.7-0.4,2.1-1.8,2.4-4.1c0.4-3.3,0.4-9.5,0.4-16.7v-13.8c0-11.9,0-14.1-0.1-16.6c-0.2-2.7-0.9-3.5-3.5-4.2
			c-0.6-0.2-1.7-0.3-2.7-0.3c-0.9,0-1.4-0.3-1.4-0.8c0-0.6,0.6-0.7,1.7-0.7c3.8,0,8.9,0.2,11.1,0.2c1.9,0,8.6-0.2,11.7-0.2
			c1.2,0,1.7,0.2,1.7,0.7c0,0.6-0.5,0.8-1.5,0.8c-0.9,0-2.2,0.1-3.1,0.3c-2.2,0.4-2.9,1.5-3,4.2c-0.2,2.5-0.2,4.7-0.2,16.6v13.8
			H418.5z"/>
		<path class="st0" d="M455.7,172.1c0-11.9,0-14.1-0.1-16.6c-0.2-2.7-1-3.6-2.8-4.1c-0.9-0.3-1.9-0.4-2.9-0.4
			c-0.8,0-1.3-0.2-1.3-0.9c0-0.5,0.6-0.6,1.9-0.6c3,0,8.6,0.2,10.9,0.2c2,0,7.3-0.2,10.4-0.2c1,0,1.7,0.2,1.7,0.6
			c0,0.7-0.5,0.9-1.3,0.9s-1.5,0.1-2.4,0.3c-2.2,0.4-2.9,1.5-3,4.2c-0.2,2.5-0.2,4.7-0.2,16.6v13.8c0,7.5,0,13.8,0.4,17.1
			c0.3,2.1,0.8,3.3,3.2,3.7c1.1,0.2,2.9,0.3,4.1,0.3c0.9,0,1.3,0.5,1.3,0.8c0,0.6-0.6,0.8-1.6,0.8c-5.3,0-10.9-0.3-13.1-0.3
			c-1.8,0-7.4,0.3-10.6,0.3c-1,0-1.6-0.3-1.6-0.8c0-0.4,0.3-0.8,1.3-0.8c1.2,0,2.1-0.1,2.9-0.3c1.7-0.4,2.1-1.5,2.4-3.8
			c0.4-3.2,0.4-9.5,0.4-17L455.7,172.1L455.7,172.1z"/>
		<path class="st0" d="M490.4,172.1c0-11.9,0-14.1-0.1-16.6c-0.2-2.7-0.9-3.5-3.5-4.2c-0.6-0.2-2-0.3-3.2-0.3
			c-0.8,0-1.4-0.3-1.4-0.8c0-0.6,0.6-0.7,1.8-0.7c4.2,0,9.4,0.2,11.7,0.2c2.5,0,8.3-0.2,13.2-0.2c10.1,0,23.7,0,32.6,8.9
			c4,4,7.6,10.6,7.6,19.9c0,9.8-4.2,17.3-8.8,21.8c-3.7,3.7-12.2,9.2-27.1,9.2c-2.9,0-6.4-0.3-9.7-0.5c-3.2-0.3-6.2-0.5-8.2-0.5
			c-0.9,0-2.7,0.1-4.6,0.1c-1.9,0.1-4,0.2-5.6,0.2c-1,0-1.6-0.3-1.6-0.8c0-0.4,0.3-0.8,1.3-0.8c1.2,0,2.1-0.1,2.9-0.3
			c1.7-0.4,2.1-1.8,2.4-4.1c0.4-3.3,0.4-9.5,0.4-16.7L490.4,172.1L490.4,172.1z M501.3,180.8c0,8.3,0.1,14.3,0.2,15.8
			c0.1,1.9,0.3,4.7,0.9,5.5c1,1.5,4.2,3.1,10.6,3.1c7.4,0,12.8-1.3,17.7-5.3c5.2-4.3,6.9-11.3,6.9-19.4c0-9.9-4-16.4-7.5-19.5
			c-7.5-6.6-16.3-7.5-22.6-7.5c-1.7,0-4.3,0.2-5,0.6c-0.7,0.3-1,0.6-1,1.6c-0.1,2.7-0.1,9.1-0.1,15.3v9.8H501.3z"/>
		<path class="st0" d="M567.6,189c-0.5,0-0.6,0.1-0.7,0.6l-4.3,10.5c-0.8,1.9-1.2,3.9-1.2,4.8c0,1.4,0.7,2.2,3.2,2.2h1.2
			c1,0,1.2,0.4,1.2,0.8c0,0.6-0.5,0.8-1.3,0.8c-2.7,0-6.4-0.3-9-0.3c-0.8,0-5.2,0.3-9.4,0.3c-1,0-1.5-0.2-1.5-0.8
			c0-0.5,0.3-0.8,0.9-0.8c0.7,0,1.7-0.1,2.4-0.1c3.7-0.6,5.1-2.9,6.7-6.9l21.2-49.2c0.9-2.2,1.6-3.1,2.4-3.1c1.2,0,1.6,0.7,2.4,2.5
			c1.9,4.3,15.5,36.3,20.6,48.2c3.1,7.1,5.4,8.1,6.9,8.4c1.2,0.2,2.1,0.3,3,0.3c0.7,0,1.1,0.3,1.1,0.8c0,0.6-0.5,0.8-3.5,0.8
			c-2.9,0-8.7,0-15.5-0.2c-1.5-0.1-2.4-0.1-2.4-0.6s0.2-0.7,1-0.8c0.6-0.1,1.1-0.8,0.7-1.7l-6.3-15.7c-0.2-0.5-0.5-0.6-0.8-0.6h-19
			V189z M584.9,184.6c0.4,0,0.5-0.2,0.4-0.5l-7.6-19.9c-0.1-0.3-0.2-0.7-0.4-0.7c-0.3,0-0.4,0.5-0.5,0.7L569,184
			c-0.2,0.4,0,0.6,0.3,0.6L584.9,184.6L584.9,184.6z"/>
		<path class="st0" d="M619.5,172.1c0-11.9,0-14.1-0.1-16.6c-0.2-2.7-0.9-3.5-3.5-4.2c-0.6-0.2-2-0.3-3.2-0.3
			c-0.8,0-1.4-0.3-1.4-0.8c0-0.6,0.6-0.7,1.8-0.7c4.2,0,9.4,0.2,11,0.2c2.8,0,10.1-0.2,12.6-0.2c5.2,0,11,0.5,15.4,3.3
			c2.3,1.6,5.7,5.5,5.7,10.8c0,5.8-3.3,10.9-11.2,17.3c7.2,8.8,12.9,15.9,17.8,20.8c4.5,4.5,7.4,4.9,8.6,5.2
			c0.8,0.2,1.3,0.2,1.9,0.2s1,0.5,1,0.8c0,0.6-0.6,0.8-1.6,0.8h-7.7c-4.5,0-6.7-0.5-8.8-1.6c-3.5-1.7-6.5-5.4-11-11.5
			c-3.2-4.2-6.6-9.5-7.6-10.7c-0.5-0.5-0.9-0.6-1.5-0.6l-7.3-0.2c-0.4,0-0.6,0.2-0.6,0.6v1.1c0,7.3,0.1,13.3,0.5,16.7
			c0.3,2.3,0.6,3.8,3.1,4.1c1.2,0.2,2.9,0.3,4,0.3c0.6,0,1,0.5,1,0.8c0,0.6-0.6,0.8-1.7,0.8c-4.7,0-11.4-0.3-12.6-0.3
			c-1.6,0-6.7,0.3-9.9,0.3c-1,0-1.6-0.3-1.6-0.8c0-0.4,0.3-0.8,1.3-0.8c1.2,0,2.1-0.1,2.9-0.3c1.7-0.4,2.1-1.8,2.4-4.1
			c0.4-3.3,0.4-9.5,0.4-16.7v-13.7H619.5z M629.8,178.2c0,0.8,0.2,1.1,0.7,1.4c1.7,0.6,4.1,0.7,6.2,0.7c3.2,0,4.3-0.3,5.7-1.3
			c2.5-1.7,5.2-5.2,5.2-11.6c0-11-7.5-13.9-12.3-13.9c-2,0-4,0.1-4.8,0.3c-0.6,0.2-0.7,0.5-0.7,1.1L629.8,178.2L629.8,178.2z"/>
		<path class="st0" d="M679.8,172.1c0-11.9,0-14.1-0.1-16.6c-0.2-2.7-1-3.6-2.8-4.1c-0.9-0.3-1.9-0.4-2.9-0.4
			c-0.8,0-1.3-0.2-1.3-0.9c0-0.5,0.6-0.6,1.9-0.6c3,0,8.6,0.2,10.9,0.2c2,0,7.3-0.2,10.4-0.2c1,0,1.7,0.2,1.7,0.6
			c0,0.7-0.5,0.9-1.3,0.9s-1.5,0.1-2.4,0.3c-2.2,0.4-2.9,1.5-3,4.2c-0.2,2.5-0.2,4.7-0.2,16.6v13.8c0,7.5,0,13.8,0.4,17.1
			c0.3,2.1,0.8,3.3,3.2,3.7c1.1,0.2,2.9,0.3,4.1,0.3c0.9,0,1.3,0.5,1.3,0.8c0,0.6-0.6,0.8-1.6,0.8c-5.3,0-10.9-0.3-13.1-0.3
			c-1.8,0-7.4,0.3-10.6,0.3c-1,0-1.6-0.3-1.6-0.8c0-0.4,0.3-0.8,1.3-0.8c1.2,0,2.1-0.1,2.9-0.3c1.7-0.4,2.1-1.5,2.4-3.8
			c0.4-3.2,0.4-9.5,0.4-17L679.8,172.1L679.8,172.1z"/>
		<path class="st0" d="M704.8,179c0-13.3,9.4-30.6,34-30.6c20.4,0,33.1,11.3,33.1,29.3s-13.1,32-34,32
			C714.3,209.7,704.8,192.9,704.8,179z M759.8,180.5c0-17.3-10.4-28-23.5-28c-9,0-19.6,4.8-19.6,24.1c0,16.1,9.2,28.8,24.5,28.8
			C746.9,205.4,759.8,202.8,759.8,180.5z"/>
	</g>
	<g>
		<polygon class="st0" points="482,230 500.3,230 506,211.1 511.9,230 530,230 515.6,241.4 521.3,260 506,248.6 490.9,260.2 
			496.6,241.4 		"/>
		<polygon class="st0" points="562.4,231.8 575,231.8 578.9,218.7 582.9,231.8 595.4,231.8 585.5,239.6 589.4,252.4 578.9,244.6 
			568.5,252.6 572.4,239.6 		"/>
		<polygon class="st0" points="620.2,233 629,233 631.7,223.8 634.5,233 643.2,233 636.3,238.4 639.1,247.3 631.7,241.9 
			624.4,247.4 627.2,238.4 		"/>
		<polygon class="st0" points="369.2,233 378,233 380.7,223.8 383.5,233 392.3,233 385.3,238.4 388.1,247.3 380.7,241.9 
			373.4,247.4 376.2,238.4 		"/>
		<polygon class="st0" points="418.4,231.8 431,231.8 434.9,218.7 439,231.8 451.4,231.8 441.5,239.6 445.5,252.4 434.9,244.6 
			424.5,252.6 428.5,239.6 		"/>
	</g>
	<g>
		<path class="st0" d="M324.7,294.2l-4.7,0.1c-1.8,0.1-2.6,0.2-3.1,0.9c-0.3,0.5-0.5,0.8-0.5,1.1c-0.1,0.3-0.2,0.4-0.3,0.4
			c-0.2,0-0.3-0.2-0.3-0.5c0-0.5,0.6-3.4,0.7-3.6c0.1-0.4,0.2-0.6,0.4-0.6c0.3,0,0.6,0.3,1.4,0.4c0.9,0.1,2.1,0.2,3.1,0.2h12.5
			c1,0,1.7-0.1,2.2-0.2s0.7-0.2,0.8-0.2c0.2,0,0.3,0.2,0.3,0.7c0,0.7-0.1,2.8-0.1,3.7c0,0.3-0.1,0.5-0.3,0.5c-0.3,0-0.3-0.2-0.3-0.6
			v-0.3c-0.1-0.8-0.9-1.7-3.7-1.8l-4-0.1v12.9c0,2.9,0,5.4,0.2,6.7c0.1,0.9,0.3,1.6,1.2,1.7c0.4,0.1,1.1,0.1,1.6,0.1
			c0.3,0,0.5,0.1,0.5,0.3c0,0.2-0.3,0.3-0.6,0.3c-2.1,0-4.1-0.1-4.9-0.1c-0.7,0-2.7,0.1-4,0.1c-0.4,0-0.6-0.1-0.6-0.3
			c0-0.2,0.1-0.3,0.5-0.3c0.5,0,0.8-0.1,1.1-0.1c0.6-0.1,0.8-0.8,0.9-1.7c0.2-1.3,0.2-3.8,0.2-6.7v-13H324.7z"/>
		<path class="st0" d="M341.5,301.6c0-4.8,0-5.7-0.1-6.7c-0.1-1.1-0.3-1.6-1.4-1.8c-0.3-0.1-0.8-0.1-1.2-0.1c-0.3,0-0.5-0.1-0.5-0.3
			c0-0.2,0.2-0.3,0.7-0.3c1.7,0,3.7,0.1,4.6,0.1c0.8,0,2.7-0.1,3.9-0.1c0.5,0,0.7,0.1,0.7,0.3c0,0.2-0.2,0.3-0.5,0.3s-0.5,0-0.9,0.1
			c-0.8,0.2-1.1,0.7-1.2,1.8c-0.1,1-0.1,1.9-0.1,6.7v4.4c0,4.6,0.9,6.5,2.5,7.7c1.4,1.2,2.9,1.3,3.9,1.3c1.4,0,3.1-0.4,4.3-1.7
			c1.7-1.7,1.8-4.6,1.8-7.8v-3.9c0-4.8,0-5.7-0.1-6.7c-0.1-1.1-0.3-1.6-1.4-1.8c-0.3-0.1-0.8-0.1-1.1-0.1s-0.5-0.1-0.5-0.3
			c0-0.2,0.2-0.3,0.7-0.3c1.6,0,3.6,0.1,3.6,0.1c0.4,0,2.4-0.1,3.6-0.1c0.4,0,0.7,0.1,0.7,0.3c0,0.2-0.2,0.3-0.6,0.3
			c-0.3,0-0.5,0-0.9,0.1c-0.8,0.2-1.1,0.7-1.2,1.8c-0.1,1-0.1,1.9-0.1,6.7v3.4c0,3.5-0.3,7.2-3,9.5c-2.2,1.9-4.5,2.3-6.5,2.3
			c-1.7,0-4.7-0.1-7-2.2c-1.6-1.4-2.8-3.8-2.8-8.3v-4.7H341.5z"/>
		<path class="st0" d="M379.1,301.6c0-4.8,0-5.7-0.1-6.7c-0.1-1.1-0.3-1.6-1.4-1.8c-0.3-0.1-0.8-0.1-1.2-0.1c-0.3,0-0.5-0.1-0.5-0.3
			c0-0.2,0.2-0.3,0.7-0.3c1.7,0,3.7,0.1,4.3,0.1c1.5,0,2.8-0.1,3.8-0.1c5.7,0,6.7,3.1,6.7,4.7c0,2.6-1.5,4.1-3.2,5.5
			c2.6,0.9,5.7,3.1,5.7,6.8c0,3.4-2.6,6.9-8.4,6.9c-0.4,0-1.3-0.1-2.2-0.1c-0.9-0.1-1.9-0.1-2.4-0.1c-0.3,0-1,0-1.8,0
			c-0.7,0-1.5,0.1-2.2,0.1c-0.4,0-0.6-0.1-0.6-0.3c0-0.2,0.1-0.3,0.5-0.3c0.5,0,0.8-0.1,1.1-0.1c0.6-0.1,0.8-0.8,0.9-1.7
			c0.2-1.3,0.2-3.8,0.2-6.7v-5.5H379.1z M382.9,302.1c0,0.3,0.1,0.3,0.2,0.3c0.3,0.1,0.8,0.1,1.5,0.1c1,0,1.7-0.1,2.3-0.6
			c0.8-0.7,1.3-1.8,1.3-3.3c0-2.1-1.2-4.9-3.9-4.9c-0.4,0-0.7,0-1,0.1c-0.2,0.1-0.3,0.2-0.3,0.5v7.8H382.9z M387,304.6
			c-0.7-0.5-1.4-0.7-2.6-0.8c-0.6,0-0.9,0-1.4,0c-0.1,0-0.2,0.1-0.2,0.2v7.5c0,2.1,0.1,2.6,1.1,3c0.8,0.3,1.6,0.4,2.3,0.4
			c1.4,0,3.8-0.8,3.8-4C390.1,308.9,389.4,306.3,387,304.6z"/>
		<path class="st0" d="M402.7,308c-0.2,0-0.2,0.1-0.3,0.3l-1.7,4.5c-0.3,0.8-0.5,1.5-0.5,1.9c0,0.6,0.3,1,1.3,1h0.5
			c0.4,0,0.5,0.1,0.5,0.3c0,0.3-0.2,0.3-0.5,0.3c-1,0-2.4-0.1-3.3-0.1c-0.3,0-2.1,0.1-3.7,0.1c-0.4,0-0.6-0.1-0.6-0.3
			c0-0.2,0.1-0.3,0.4-0.3s0.7,0,1-0.1c1.4-0.2,2-1.3,2.7-2.8l7.9-19.8c0.4-0.9,0.6-1.3,0.9-1.3s0.5,0.3,0.8,1
			c0.8,1.7,5.8,14.6,7.8,19.4c1.2,2.8,2.1,3.3,2.8,3.4c0.5,0.1,0.9,0.1,1.3,0.1c0.3,0,0.4,0,0.4,0.3s-0.3,0.3-1.4,0.3s-3.4,0-6-0.1
			c-0.6,0-0.9,0-0.9-0.3c0-0.2,0.1-0.3,0.4-0.3c0.2-0.1,0.4-0.3,0.3-0.7l-2.5-6.7c-0.1-0.2-0.2-0.2-0.3-0.2h-7.3V308z M409.2,306.4
			c0.2,0,0.2-0.1,0.2-0.2l-2.8-7.8c0-0.1-0.1-0.3-0.2-0.3s-0.2,0.2-0.2,0.3l-2.9,7.7c0,0.1,0,0.2,0.1,0.2L409.2,306.4L409.2,306.4z"
			/>
		<path class="st0" d="M425.3,311.9c0.1,2.5,0.5,3.3,1.1,3.5c0.5,0.2,1.1,0.2,1.6,0.2c0.3,0,0.5,0.1,0.5,0.3c0,0.3-0.3,0.3-0.7,0.3
			c-2,0-3.3-0.1-3.9-0.1c-0.3,0-1.8,0.1-3.4,0.1c-0.4,0-0.7,0-0.7-0.3c0-0.2,0.2-0.3,0.5-0.3c0.4,0,1,0,1.4-0.2
			c0.8-0.3,0.9-1.2,1-3.9L423,293c0-0.6,0.1-1.1,0.4-1.1s0.6,0.4,1.2,1c0.4,0.4,5.2,5.5,9.8,10.1c2.1,2.1,6.4,6.7,6.9,7.2h0.2
			l-0.3-14.1c0-1.9-0.3-2.5-1.1-2.8c-0.5-0.2-1.2-0.2-1.7-0.2c-0.4,0-0.5-0.1-0.5-0.3c0-0.3,0.3-0.3,0.8-0.3c1.6,0,3.1,0.1,3.8,0.1
			c0.3,0,1.5-0.1,3.1-0.1c0.4,0,0.7,0,0.7,0.3c0,0.2-0.2,0.3-0.6,0.3c-0.3,0-0.6,0-0.9,0.1c-0.9,0.3-1.1,0.9-1.2,2.7l-0.3,19.9
			c0,0.7-0.1,1-0.4,1s-0.7-0.3-1.1-0.7c-2-1.9-6-6-9.3-9.3c-3.4-3.4-6.9-7.3-7.5-7.9h-0.1L425.3,311.9z"/>
		<path class="st0" d="M453.5,313.2c-3.1-2.7-3.9-6.2-3.9-9.3c0-2.1,0.7-5.9,3.7-8.6c2.3-2.1,5.3-3.3,9.9-3.3c2,0,3.1,0.1,4.6,0.3
			c1.2,0.2,2.2,0.4,3.1,0.5c0.3,0,0.5,0.2,0.5,0.4c0,0.3-0.1,0.6-0.2,1.7c-0.1,1,0,2.8-0.1,3.4c0,0.5-0.1,0.7-0.4,0.7
			s-0.3-0.3-0.3-0.7c0-1-0.4-2.1-1.2-2.9c-1-1.1-3.5-2-6.4-2c-2.7,0-4.5,0.7-5.9,2c-2.3,2.1-2.9,5.1-2.9,8.2
			c0,7.5,5.7,11.2,9.9,11.2c2.8,0,4.5-0.3,5.8-1.8c0.5-0.6,0.9-1.5,1.1-2.1c0.1-0.5,0.2-0.6,0.4-0.6c0.2,0,0.3,0.2,0.3,0.5
			c0,0.4-0.4,3.1-0.7,4.2c-0.2,0.5-0.3,0.7-0.8,0.9c-1.3,0.5-3.7,0.7-5.7,0.7C460,316.7,456.3,315.7,453.5,313.2z"/>
		<path class="st0" d="M480.4,308c-0.2,0-0.2,0.1-0.3,0.3l-1.7,4.5c-0.3,0.8-0.5,1.5-0.5,1.9c0,0.6,0.3,1,1.3,1h0.5
			c0.4,0,0.5,0.1,0.5,0.3c0,0.3-0.2,0.3-0.5,0.3c-1,0-2.4-0.1-3.3-0.1c-0.3,0-2.1,0.1-3.7,0.1c-0.4,0-0.6-0.1-0.6-0.3
			c0-0.2,0.1-0.3,0.4-0.3s0.7,0,1-0.1c1.4-0.2,2-1.3,2.7-2.8l7.9-19.8c0.4-0.9,0.6-1.3,0.9-1.3s0.5,0.3,0.8,1
			c0.8,1.7,5.8,14.6,7.8,19.4c1.2,2.8,2.1,3.3,2.8,3.4c0.5,0.1,0.9,0.1,1.3,0.1c0.3,0,0.4,0,0.4,0.3s-0.3,0.3-1.4,0.3s-3.4,0-6-0.1
			c-0.6,0-0.9,0-0.9-0.3c0-0.2,0.1-0.3,0.4-0.3c0.2-0.1,0.4-0.3,0.3-0.7l-2.5-6.7c-0.1-0.2-0.2-0.2-0.3-0.2h-7.3V308z M486.8,306.4
			c0.2,0,0.2-0.1,0.2-0.2l-2.8-7.8c0-0.1-0.1-0.3-0.2-0.3s-0.2,0.2-0.2,0.3l-2.9,7.7c0,0.1,0,0.2,0.1,0.2L486.8,306.4L486.8,306.4z"
			/>
		<path class="st0" d="M508.9,315.8c-0.5-0.2-0.6-0.4-0.6-1.1c0-1.7,0.1-3.6,0.2-4.1c0-0.5,0.1-0.8,0.4-0.8s0.3,0.3,0.3,0.5
			c0,0.4,0.1,1.1,0.3,1.6c0.7,2.3,2.5,3.2,4.5,3.2c2.8,0,4.2-1.9,4.2-3.6c0-1.5-0.5-3-3.1-5l-1.4-1.1c-3.5-2.7-4.7-4.9-4.7-7.5
			c0-3.5,2.9-6,7.3-6c2,0,3.4,0.3,4.2,0.5c0.3,0.1,0.4,0.2,0.4,0.4c0,0.4-0.1,1.3-0.1,3.8c0,0.7-0.1,0.9-0.3,0.9s-0.3-0.2-0.3-0.6
			c0-0.3-0.2-1.3-0.8-2.1c-0.5-0.6-1.4-1.5-3.4-1.5c-2.3,0-3.7,1.4-3.7,3.2c0,1.4,0.7,2.5,3.3,4.5l0.9,0.7c3.8,2.9,5.2,5,5.2,8
			c0,1.8-0.7,4-3,5.5c-1.6,1-3.3,1.3-5,1.3C511.6,316.7,510.2,316.4,508.9,315.8z"/>
		<path class="st0" d="M525.5,304.3c0-5.4,3.6-12.3,13-12.3c7.8,0,12.7,4.6,12.7,11.8s-5,12.9-13,12.9
			C529.1,316.7,525.5,309.9,525.5,304.3z M546.8,304.9c0-7.1-4.1-11.4-9.2-11.4c-3.6,0-7.7,2-7.7,9.9c0,6.5,3.6,11.7,9.7,11.7
			C541.7,315.1,546.8,314,546.8,304.9z"/>
		<path class="st0" d="M561.7,307.1c0,4,0,6.2,0.7,6.8c0.5,0.5,1.4,0.7,3.8,0.7c1.7,0,2.9,0,3.7-0.9c0.4-0.4,0.8-1.3,0.8-1.9
			c0-0.3,0.1-0.5,0.3-0.5s0.3,0.2,0.3,0.5s-0.2,2.7-0.5,3.6c-0.2,0.7-0.3,0.8-2,0.8c-2.3,0-3.9-0.1-5.3-0.1
			c-1.4-0.1-2.5-0.1-3.8-0.1c-0.3,0-1,0-1.8,0c-0.7,0-1.5,0.1-2.2,0.1c-0.4,0-0.6-0.1-0.6-0.3c0-0.2,0.1-0.3,0.5-0.3
			c0.5,0,0.8-0.1,1.1-0.1c0.6-0.1,0.8-0.8,0.9-1.7c0.2-1.3,0.2-3.8,0.2-6.7v-5.5c0-4.8,0-5.7-0.1-6.7c-0.1-1.1-0.3-1.6-1.4-1.8
			c-0.3-0.1-0.6-0.1-1-0.1c-0.3,0-0.5-0.1-0.5-0.3c0-0.2,0.2-0.3,0.7-0.3c1.5,0,3.5,0.1,4.3,0.1s3.1-0.1,4.3-0.1
			c0.4,0,0.7,0.1,0.7,0.3c0,0.2-0.2,0.3-0.6,0.3c-0.3,0-0.8,0-1.2,0.1c-0.8,0.2-1.1,0.7-1.2,1.8c-0.1,1-0.1,1.9-0.1,6.7L561.7,307.1
			L561.7,307.1z"/>
		<path class="st0" d="M576.8,301.6c0-4.8,0-5.7-0.1-6.7c-0.1-1.1-0.4-1.6-1.1-1.8c-0.3-0.1-0.8-0.1-1.1-0.1s-0.5-0.1-0.5-0.3
			c0-0.2,0.3-0.3,0.8-0.3c1.2,0,3.2,0.1,4.1,0.1c0.8,0,2.6-0.1,3.8-0.1c0.4,0,0.7,0.1,0.7,0.3c0,0.3-0.2,0.3-0.5,0.3s-0.6,0-0.9,0.1
			c-0.9,0.2-1.1,0.7-1.2,1.8c-0.1,1-0.1,1.9-0.1,6.7v5.5c0,3.1,0,5.5,0.1,6.9c0.1,0.8,0.3,1.4,1.3,1.5c0.4,0.1,1.1,0.1,1.6,0.1
			c0.3,0,0.5,0.1,0.5,0.3c0,0.2-0.3,0.3-0.6,0.3c-2.1,0-4.1-0.1-4.9-0.1c-0.7,0-2.7,0.1-4,0.1c-0.4,0-0.6-0.1-0.6-0.3
			c0-0.2,0.1-0.3,0.5-0.3c0.5,0,0.8-0.1,1.1-0.1c0.6-0.1,0.8-0.7,0.9-1.6c0.2-1.3,0.2-3.8,0.2-6.9V301.6z"/>
		<path class="st0" d="M591,301.6c0-4.8,0-5.7-0.1-6.7c-0.1-1.1-0.3-1.6-1.4-1.8c-0.3-0.1-0.8-0.1-1.2-0.1c-0.3,0-0.5-0.1-0.5-0.3
			c0-0.2,0.2-0.3,0.7-0.3c1.7,0,3.7,0.1,4.5,0.1c1,0,3-0.1,4.8-0.1c3.9,0,9.2,0,12.6,3.6c1.6,1.6,3.1,4.3,3.1,8c0,4-1.7,7-3.4,8.8
			c-1.4,1.5-4.7,3.7-10.5,3.7c-1.1,0-2.4-0.1-3.6-0.2c-1.2-0.1-2.3-0.2-3.1-0.2c-0.3,0-1,0-1.8,0c-0.7,0-1.5,0.1-2.2,0.1
			c-0.4,0-0.6-0.1-0.6-0.3c0-0.2,0.1-0.3,0.5-0.3c0.5,0,0.8-0.1,1.1-0.1c0.6-0.1,0.8-0.8,0.9-1.7c0.2-1.3,0.2-3.8,0.2-6.7V301.6z
			 M595,305c0,3.3,0,5.8,0.1,6.4c0,0.8,0.1,2,0.3,2.4c0.4,0.6,1.6,1.3,4.1,1.3c3.2,0,5.4-0.6,7.2-2.3c2-1.7,2.6-4.6,2.6-7.8
			c0-4-1.7-6.6-3-7.9c-2.9-2.8-6.5-3.1-8.9-3.1c-0.6,0-1.8,0.1-2,0.2c-0.3,0.1-0.4,0.3-0.4,0.6c0,1.1,0,3.8,0,6.3L595,305L595,305z"
			/>
		<path class="st0" d="M621.8,308c-0.2,0-0.2,0.1-0.3,0.3l-1.7,4.5c-0.3,0.8-0.5,1.5-0.5,1.9c0,0.6,0.3,1,1.3,1h0.5
			c0.4,0,0.5,0.1,0.5,0.3c0,0.3-0.2,0.3-0.5,0.3c-1,0-2.4-0.1-3.3-0.1c-0.3,0-2.1,0.1-3.7,0.1c-0.4,0-0.6-0.1-0.6-0.3
			c0-0.2,0.1-0.3,0.4-0.3c0.3,0,0.7,0,1-0.1c1.4-0.2,2-1.3,2.7-2.8l7.9-19.8c0.4-0.9,0.6-1.3,0.9-1.3c0.3,0,0.5,0.3,0.8,1
			c0.8,1.7,5.8,14.6,7.8,19.4c1.2,2.8,2.1,3.3,2.8,3.4c0.5,0.1,0.9,0.1,1.3,0.1c0.3,0,0.4,0,0.4,0.3s-0.3,0.3-1.4,0.3
			c-1.1,0-3.4,0-6-0.1c-0.6,0-0.9,0-0.9-0.3c0-0.2,0.1-0.3,0.4-0.3c0.2-0.1,0.4-0.3,0.3-0.7l-2.5-6.7c-0.1-0.2-0.2-0.2-0.3-0.2h-7.3
			V308z M628.2,306.4c0.2,0,0.2-0.1,0.2-0.2l-2.8-7.8c0-0.1-0.1-0.3-0.2-0.3c-0.1,0-0.2,0.2-0.2,0.3l-2.9,7.7c0,0.1,0,0.2,0.1,0.2
			L628.2,306.4L628.2,306.4z"/>
		<path class="st0" d="M642.5,301.6c0-4.8,0-5.7-0.1-6.7c-0.1-1.1-0.3-1.6-1.4-1.8c-0.3-0.1-0.8-0.1-1.2-0.1c-0.3,0-0.5-0.1-0.5-0.3
			c0-0.2,0.2-0.3,0.7-0.3c1.7,0,3.7,0.1,4.3,0.1c1.1,0,3.5-0.1,4.4-0.1c2,0,4.1,0.2,5.8,1.4c0.9,0.6,2.1,2.2,2.1,4.3
			c0,2.3-1,4.5-4.2,7.1c2.8,3.5,5,6.3,6.8,8.3c1.8,1.8,3.1,2,3.5,2.1c0.3,0.1,0.6,0.1,0.9,0.1c0.3,0,0.4,0.1,0.4,0.3
			c0,0.3-0.2,0.3-0.6,0.3h-3c-1.8,0-2.6-0.2-3.4-0.6c-1.4-0.7-2.5-2.2-4.3-4.6c-1.3-1.7-2.7-3.9-3.1-4.3c-0.2-0.2-0.3-0.2-0.6-0.2
			l-2.7-0.1c-0.2,0-0.3,0.1-0.3,0.3v0.4c0,2.9,0,5.4,0.2,6.7c0.1,0.9,0.3,1.6,1.2,1.7c0.5,0.1,1.2,0.1,1.5,0.1s0.4,0.1,0.4,0.3
			c0,0.2-0.2,0.3-0.6,0.3c-1.8,0-4.2-0.1-4.6-0.1c-0.6,0-2.6,0.1-3.8,0.1c-0.4,0-0.6-0.1-0.6-0.3c0-0.2,0.1-0.3,0.5-0.3
			c0.5,0,0.8-0.1,1.1-0.1c0.6-0.1,0.8-0.8,0.9-1.7c0.2-1.3,0.2-3.8,0.2-6.7L642.5,301.6L642.5,301.6z M646.2,304
			c0,0.3,0.1,0.5,0.3,0.6c0.7,0.2,1.6,0.3,2.4,0.3c1.3,0,1.7-0.1,2.2-0.5c0.9-0.7,1.9-2.1,1.9-4.7c0-4.5-3-5.8-4.8-5.8
			c-0.8,0-1.4,0-1.7,0.1c-0.2,0.1-0.3,0.2-0.3,0.4L646.2,304L646.2,304z"/>
		<path class="st0" d="M666.3,301.6c0-4.8,0-5.7-0.1-6.7c-0.1-1.1-0.4-1.6-1.1-1.8c-0.3-0.1-0.8-0.1-1.1-0.1s-0.5-0.1-0.5-0.3
			c0-0.2,0.3-0.3,0.8-0.3c1.2,0,3.2,0.1,4.1,0.1c0.8,0,2.6-0.1,3.8-0.1c0.4,0,0.7,0.1,0.7,0.3c0,0.3-0.2,0.3-0.5,0.3s-0.6,0-0.9,0.1
			c-0.9,0.2-1.1,0.7-1.2,1.8c-0.1,1-0.1,1.9-0.1,6.7v5.5c0,3.1,0,5.5,0.1,6.9c0.1,0.8,0.3,1.4,1.3,1.5c0.4,0.1,1.1,0.1,1.6,0.1
			c0.3,0,0.5,0.1,0.5,0.3c0,0.2-0.3,0.3-0.6,0.3c-2.1,0-4.1-0.1-4.9-0.1c-0.7,0-2.7,0.1-4,0.1c-0.4,0-0.6-0.1-0.6-0.3
			c0-0.2,0.1-0.3,0.5-0.3c0.5,0,0.8-0.1,1.1-0.1c0.6-0.1,0.8-0.7,0.9-1.6c0.2-1.3,0.2-3.8,0.2-6.9V301.6z"/>
		<path class="st0" d="M681.8,308c-0.2,0-0.2,0.1-0.3,0.3l-1.7,4.5c-0.3,0.8-0.5,1.5-0.5,1.9c0,0.6,0.3,1,1.3,1h0.5
			c0.4,0,0.5,0.1,0.5,0.3c0,0.3-0.2,0.3-0.5,0.3c-1,0-2.4-0.1-3.3-0.1c-0.3,0-2.1,0.1-3.7,0.1c-0.4,0-0.6-0.1-0.6-0.3
			c0-0.2,0.1-0.3,0.4-0.3c0.3,0,0.7,0,1-0.1c1.4-0.2,2-1.3,2.7-2.8l7.9-19.8c0.4-0.9,0.6-1.3,0.9-1.3c0.3,0,0.5,0.3,0.8,1
			c0.8,1.7,5.8,14.6,7.8,19.4c1.2,2.8,2.1,3.3,2.8,3.4c0.5,0.1,0.9,0.1,1.3,0.1c0.3,0,0.4,0,0.4,0.3s-0.3,0.3-1.4,0.3
			c-1.1,0-3.4,0-6-0.1c-0.6,0-0.9,0-0.9-0.3c0-0.2,0.1-0.3,0.4-0.3c0.2-0.1,0.4-0.3,0.3-0.7l-2.5-6.7c-0.1-0.2-0.2-0.2-0.3-0.2h-7.3
			V308z M688.2,306.4c0.2,0,0.2-0.1,0.2-0.2l-2.8-7.8c0-0.1-0.1-0.3-0.2-0.3s-0.2,0.2-0.2,0.3l-2.9,7.7c0,0.1,0,0.2,0.1,0.2
			L688.2,306.4L688.2,306.4z"/>
	</g>
	<g>
		<path class="st0" d="M347.2,275.8c-55.4,0-100.3-0.3-100.3-0.7c0-0.4,44.9-0.7,100.3-0.7h139.2v1.4L347.2,275.8L347.2,275.8z"/>
		<path class="st0" d="M664.4,274.4c55.5,0,100.5,0.3,100.5,0.7c0,0.4-45,0.7-100.5,0.7H525.1v-1.4L664.4,274.4L664.4,274.4z"/>
	</g>
</g>
</svg>
