<svg id="Capa_1" data-name="Capa 1" xmlns="http://www.w3.org/2000/svg" viewBox="0 0 270.14 297.64"><defs><style>.cls-1{fill:#009169;}.cls-2{fill:#ffd500;}.cls-3{fill:#3868a8;}.cls-4{fill:#0080c0;}.cls-5{fill:#7caad7;}</style></defs><title>soloLogo</title><path class="cls-1" d="M244.94,49.21S352,234.56,184.15,298.82v-26S302.37,235.52,244.94,49.21Z" transform="translate(-8.46 -1.18)"/><path class="cls-1" d="M13.87,298.82l40.8-33.27S311.83,302.29,224.12,20.85C224,20.85,376.92,293.56,13.87,298.82Z" transform="translate(-8.46 -1.18)"/><path class="cls-2" d="M191,85.58a83.89,83.89,0,0,0-30.87,2c-21.18,5.27-37.45,19.62-48.22,38.29-10.65,18.43-14.12,41.64-13.4,62.7.72,19.27,7.78,45.47,27.4,54.09.6.24,3.59,0,3.23-1.08-2.63-7.18-7.3-13.16-9.57-20.58a143.85,143.85,0,0,1-5-25.73c-2-19.15.84-39.13,7.18-57.2,6-17,17.23-32.19,33.51-40.45,18.43-9.21,36.5-1.68,55.4.36,1.08.12,5.86-.84,4.55-2.75C210.47,88.22,198.63,86.66,191,85.58Z" transform="translate(-8.46 -1.18)"/><path class="cls-2" d="M84.59,225.35c-9.93,2-18.79,8.38-27.64,13-9.45,4.79-18.91,9.57-28.6,14-2.39,1.08.84,1.68,1.91,1.32,12.33-3.83,24.77-7.18,36.74-12,6-2.39,22.14-7.06,23.33-14.48C90.81,224.39,86,225.11,84.59,225.35Z" transform="translate(-8.46 -1.18)"/><path class="cls-2" d="M76.93,183.35c-20.46.72-40.57,3.59-61,3.11-3.47-.12-11.85,4.67-4.55,5.27,21.54,1.91,43.44,4.67,64.86.6C85.19,190.65,88.18,183,76.93,183.35Z" transform="translate(-8.46 -1.18)"/><path class="cls-2" d="M84.95,148.41c-10.17-1.91-20.22-3.47-30.39-5.15-9.45-1.44-18.91-4.91-28.48-4.31-1.08.12-4.79,1.08-3.83,2.75,3.59,6,18.55,6,24.89,7.06,10.77,1.68,21.66,2.39,32.31,3.71C81.6,152.83,89.86,149.36,84.95,148.41Z" transform="translate(-8.46 -1.18)"/><path class="cls-2" d="M90.09,126.27a35.06,35.06,0,0,1-11.25-3.95c-3.35-1.68-5.86-3.23-9.69-1.91-1.44.48-3,2.15-.36,3.71a32.05,32.05,0,0,0,5.86,2.51,35,35,0,0,0,12.68,2.27C88.3,128.78,93.09,126.75,90.09,126.27Z" transform="translate(-8.46 -1.18)"/><path class="cls-2" d="M80.28,88.94C70.11,84,59.22,77.33,47.73,79.6c-3.35.6-9,4.67-.6,7.54,6,2,12,4.43,17.83,6.82,12.56,5.15,24.77,12,37.81,15.56,1,.24,5.15-.48,4.19-2C101.7,98.63,89,93.12,80.28,88.94Z" transform="translate(-8.46 -1.18)"/><path class="cls-2" d="M78.37,170.54l-8.74.24c-3,.12-6.22.12-8.85,1.79-.24.12-.72.6-.6,1,.6,1.79,4.55,1.32,6,1.32l8.62-.12c1.91,0,4.31-.36,5.62-1.91S79.56,170.54,78.37,170.54Z" transform="translate(-8.46 -1.18)"/><path class="cls-2" d="M79.92,212.19a31.86,31.86,0,0,1-6.58,1.91c-2.39.48-4.79,0-7.18.36-1.2.12-7.42,2-4.31,3.95s8.38.6,11.73,0a43.72,43.72,0,0,0,10.29-3.59c.72-.36,2.39-1.44,1.44-2.51C84.11,211.11,81.36,211.71,79.92,212.19Z" transform="translate(-8.46 -1.18)"/><path class="cls-2" d="M99.07,72.66c-1-.48-3.83,0-3.83,1.32,0,4.31,3.95,7.18,6.82,9.93,3.95,3.71,8.14,7.18,11.61,11.37,1.2,1.44,7.18-.36,5.86-2A96.24,96.24,0,0,0,110,83.07C106.37,79.6,103.38,75.29,99.07,72.66Z" transform="translate(-8.46 -1.18)"/><path class="cls-2" d="M101.1,30.18c-2.27-.48-5.62.24-6.82,2.39-.6,1-1.2,2-1.79,3a1.87,1.87,0,0,0,.36,1.91c11,15.8,21.54,34.34,36.5,46.79,1.68,1.44,11,.24,9.69-2.75-4.07-9.45-9.93-18.07-15.44-26.8-3.11-4.91-6.1-9.69-9.33-14.48C110.08,34.25,108.4,31.62,101.1,30.18Z" transform="translate(-8.46 -1.18)"/><path class="cls-2" d="M141.91,50c-1.2,4.19,1.56,8.5,3.35,12.09a35.17,35.17,0,0,0,9,11.49c.72.6,3.71,0,3.11-1.08-2.27-3.83-4.43-7.66-6.34-11.73-1.79-3.83-2.27-8.62-5.15-11.73C145,48.49,142.27,49,141.91,50Z" transform="translate(-8.46 -1.18)"/><path class="cls-2" d="M165.12,4.81c-1.44,10.77,1.44,22.38,2.51,33.15,1.2,11,.12,25.13,4.67,35.3,1,2,5.62.6,6.34-1.08,4.55-10.05,2.75-23,1.91-33.74-1-11.37-.72-24.53-3.95-35.54C175.53-.45,165.48,1.58,165.12,4.81Z" transform="translate(-8.46 -1.18)"/><path class="cls-2" d="M199.47,48.85c-5.74,5.15-5.62,15.56-7.54,22.62-.72,2.63,7.3,1.68,7.9-.72,1.08-3.95,1.79-8,2.75-12.09.72-3.11,2.63-7.18,1.2-10.29C203.06,46.93,200.3,48.13,199.47,48.85Z" transform="translate(-8.46 -1.18)"/><path class="cls-3" d="M196.23,111.91c0,6.82-5.38,12.44-11.85,12.44s-11.85-5.62-11.85-12.44c0-7.06,5.38-12.44,11.85-12.44s11.85,5.38,11.85,12.44Z" transform="translate(-8.46 -1.18)"/><path class="cls-3" d="M158.54,171.86s.24-43.68,21.54-45.59c21.54-1.91,20,20.46,38.29,24.41,8,1.68,3.59,8.74-3.59,5.62A26.82,26.82,0,0,1,200.9,149c-5.86-6.34-5.15-2.15-2.87,5.86,2.27,8.26,10.05,44.87,4.43,62.82-5.38,17.59-6.22,11.25-6.22-5.38s-4.43-36.86-7.66-23.09S187,227.74,181.87,227c-5.38-.72-7.42-53.61-7.9-73.11.24-6.58-6.22-3.71-11.49,23.09Z" transform="translate(-8.46 -1.18)"/><path class="cls-4" d="M166.8,127.23a10.22,10.22,0,0,1-10.05,10.53c-5.38,0-9.81-4.67-9.81-10.53s4.43-10.53,9.81-10.53a10.3,10.3,0,0,1,10.05,10.53Z" transform="translate(-8.46 -1.18)"/><path class="cls-4" d="M133.17,172.1s-2.87,8.5,2.63,2.39c5.38-6.34,15.44-23.09,11-7.54-4.67,15.56-15.92,35.54-10.05,33.39s7.9-1.44,7.9-1.44-1.32,29.44,2.27,28.24c3.35-1.2,8-29.2,8-29.2s9.45-1.91,9.81,2.15-2.27,26.8,2,25.13c4.31-1.44,6.46-29,6.46-29s16.15,2.15,8.26-5.38c-8-7.3-21.3-33.86-16.63-31.71s15.2,9.21,15.2,9.21l-1-5.62s-14.36-22.86-22.5-22.86c-7.54,0-23.45,32.19-23.45,32.19Z" transform="translate(-8.46 -1.18)"/><path class="cls-5" d="M216.7,113.59a7.23,7.23,0,0,1-7.18,7.3,7.11,7.11,0,0,1-6.94-7.3,7.18,7.18,0,0,1,6.94-7.3,7.3,7.3,0,0,1,7.18,7.3Z" transform="translate(-8.46 -1.18)"/><path class="cls-5" d="M218,122.08c-3.83,2.63-18.67,1.68-18.67,1.68-3.35-.24-7.42-2.39-7.66,1.91,0,4.43,10.77,3.47,10.77,3.47s1.56,6.82-1.32,12c-2.87,4.91-4.43,8.74-4.07,14.12s5.62,5.86,4.91-2.39,6.1-7.54,6.1-7.54c-1.79,3.35-1.79,4.43.24,10.53s6.46,5.15,5.38,1.68-4.07-7.78-.72-11.49c3.35-3.95,4.07-4.43,3.59-13.4-.24-3.47.84-4.43,2.51-5.38,0,0,6.22-1.91,6.94-8.5.48-6.82-3.59-3.47-4.07-1.91a6.67,6.67,0,0,1-3.95,5.27Z" transform="translate(-8.46 -1.18)"/></svg>